<?xml version="1.0" encoding="iso-8859-1"?>
<!-- Generator: Adobe Illustrator 19.0.0, SVG Export Plug-In . SVG Version: 6.00 Build 0)  -->
<svg xmlns="http://www.w3.org/2000/svg" xmlns:xlink="http://www.w3.org/1999/xlink" version="1.1" id="Layer_1" x="0px" y="0px" viewBox="0 0 511.906 511.906" style="enable-background:new 0 0 511.906 511.906;" xml:space="preserve" width="512px" height="512px">
<g transform="translate(1 1)">
	<g>
		<g>
			<path d="M321.509,383.023c-30.171-8.229-65.829-18.286-96.914-18.286h-24.686c-62.171,0-139.886,73.143-143.543,75.886     c-3.657,3.657-3.657,9.143,0,12.8c1.829,1.829,3.657,2.743,6.4,2.743c1.829,0,4.571-0.914,6.4-3.657     c0.914,0,75.886-70.4,130.743-70.4h25.6c28.343,0,62.171,10.057,91.429,18.286c4.571,0.914,9.143-1.829,10.971-6.4     C328.823,389.423,326.081,384.852,321.509,383.023z" fill="#383838"/>
			<path d="M502.538,209.309c-5.486-0.914-10.057,2.743-10.057,8.229c0,0-2.743,31.086-16.457,61.257     c-17.371,39.314-45.714,58.514-84.114,58.514c-1.492,0-2.843,0.279-4.028,0.784c-14.831-0.29-27.678-1.06-38.937-2.159     c75.056-42.548,97.032-200.092,97.823-207.996c0.914-4.571-2.743-9.143-8.229-10.057c-4.571,0-9.143,3.657-10.057,8.229     c0,1.829-27.429,202.057-118.857,202.057c-1.475,0-2.811,0.272-3.986,0.765c-5.733-1.34-10.927-2.721-15.779-4.07     c80.176-43.465,83.765-233.836,83.765-243.552c0-4.571-3.657-9.143-9.143-9.143s-9.143,3.657-9.143,9.143     c0,2.743-4.571,234.057-100.571,234.057c-0.959,0-1.859,0.118-2.696,0.332c-6.654-1.198-13.324-2.187-20.023-2.945     c71.521-59.36,50.965-241.65,50.148-250.644c-0.914-5.486-4.571-9.143-10.057-8.229s-9.143,5.486-8.229,10.057     c0,2.743,24.686,221.257-66.743,246.857c0,0,0,0,0,0h-14.942c54.854-76.841,10.263-217.979,8.543-224     c-1.829-4.571-7.314-7.314-11.886-5.486c-4.571,1.829-7.314,7.314-5.486,11.886c0,1.825,48.246,153.872-16.063,219.015     c-5.353,0.958-10.745,2.382-16.133,4.178c36.604-80.086-12.888-187.188-15.347-192.107c-1.829-4.571-7.314-6.4-11.886-4.571     c-4.571,1.829-6.4,7.314-4.571,11.886c0,0.911,58.035,126.079,1.579,198.445c-1.926,1.078-3.837,2.187-5.735,3.32     c15.197-66.397-31.963-167.185-34.244-172.507c-1.829-4.571-7.314-6.4-11.886-4.571c-4.571,1.829-6.4,7.314-4.571,11.886     c18.142,38.098,56.968,145.479,20.972,185.56c-4.805,3.698-9.381,7.403-13.657,11.011     c8.229-61.257-43.886-138.057-46.629-141.714c-2.743-4.571-8.229-5.486-12.8-2.743c-3.657,2.743-4.571,8.229-1.829,11.886     c0.914,1.829,75.886,111.543,29.257,161.829c-0.914,0.914-0.914,0.914-0.914,0.914c-3.657,3.657-3.657,9.143,0,12.8     c1.829,1.829,4.571,2.743,6.4,2.743c2.743,0,4.571-0.914,6.4-1.829c0.914-0.914,0.914-0.914,0.914-0.914     c3.453-3.453,20.965-21.166,43.972-38.907c0.278-0.134,0.553-0.27,0.828-0.407c0.227-0.238,0.434-0.49,0.656-0.731     c25.495-19.458,57.385-38.583,84.373-38.583h24.686c29.257,0,57.6,4.571,85.943,12.8c24.686,7.314,55.771,14.629,117.943,14.629     c2.315,0,4.298-0.658,5.825-1.823c94.769-11.758,103.89-134.45,103.89-135.32C511.681,213.88,508.023,209.309,502.538,209.309z" fill="#383838"/>
		</g>
	</g>
</g>
<g>
</g>
<g>
</g>
<g>
</g>
<g>
</g>
<g>
</g>
<g>
</g>
<g>
</g>
<g>
</g>
<g>
</g>
<g>
</g>
<g>
</g>
<g>
</g>
<g>
</g>
<g>
</g>
<g>
</g>
</svg>
